<svg width="91" height="52" viewBox="0 0 91 52" fill="none" xmlns="http://www.w3.org/2000/svg">
<path d="M32.03 11.21C32.03 9.77 31.74 8.37 31.14 7.02C30.55 5.67 29.67 4.48 28.51 3.44C27.35 2.4 25.88 1.57 24.13 0.94C22.37 0.31 20.33 0 18 0C16.23 0 14.56 0.29 12.99 0.86C11.42 1.43 9.97 2.24 8.64 3.29C7.31 4.34 6.11 5.59 5.04 7.05C3.98 8.51 3.07 10.13 2.32 11.9C1.57 13.67 1 15.57 0.6 17.59C0.2 19.62 0 21.72 0 23.9C0 25.17 0.07 26.52 0.2 27.95C0.33 29.38 0.54 30.81 0.83 32.22C1.12 33.63 1.5 34.99 1.96 36.28C2.42 37.57 2.99 38.72 3.66 39.71C4.33 40.7 5.11 41.49 6 42.08C6.89 42.67 7.9 42.96 9.03 42.96C10.1 42.96 11.08 42.76 11.98 42.37C12.88 41.98 13.69 41.45 14.42 40.78C15.15 40.11 15.78 39.34 16.33 38.45C16.88 37.56 17.34 36.62 17.72 35.63C18.1 34.64 18.39 33.63 18.59 32.59C18.79 31.55 18.91 30.55 18.93 29.58C18.93 29.5 18.93 29.35 18.93 29.12C18.93 28.9 18.94 28.64 18.95 28.34C18.95 28.04 18.97 27.72 18.98 27.36C18.99 27 19.01 26.64 19.02 26.28C19.05 25.44 19.08 24.51 19.12 23.5C21.3 23.17 23.2 22.6 24.81 21.78C26.43 20.97 27.77 20 28.83 18.88C29.89 17.76 30.69 16.54 31.21 15.22C31.74 13.89 32 12.56 32 11.2L32.03 11.21ZM26.6 14.01C26.29 14.76 25.82 15.46 25.18 16.09C24.54 16.72 23.73 17.26 22.76 17.72C21.78 18.18 20.62 18.52 19.27 18.73L19.46 17.08L20.72 11.7C20.72 11.64 20.72 11.6 20.73 11.56C20.73 11.52 20.74 11.46 20.74 11.36C20.74 11.01 20.67 10.73 20.52 10.51C20.38 10.29 20.2 10.11 19.98 9.98C19.77 9.85 19.53 9.76 19.27 9.71C19.01 9.66 18.75 9.64 18.51 9.64C17.69 9.64 17 9.85 16.44 10.26C15.88 10.67 15.43 11.19 15.09 11.82C14.74 12.45 14.48 13.14 14.3 13.89C14.12 14.64 13.99 15.36 13.91 16.05C13.83 16.74 13.79 17.35 13.79 17.89C13.79 18.43 13.78 18.79 13.78 18.97C13.53 18.91 13.26 18.83 12.96 18.71C12.7 18.61 12.39 18.48 12.02 18.31C11.65 18.14 11.24 17.93 10.79 17.68C10.61 17.58 10.46 17.5 10.35 17.44C10.23 17.38 10.11 17.35 9.97 17.35C9.76 17.35 9.6 17.41 9.49 17.53C9.37 17.65 9.28 17.81 9.22 18C9.16 18.19 9.12 18.41 9.11 18.66C9.1 18.91 9.09 19.16 9.09 19.41C9.09 19.87 9.13 20.27 9.22 20.62C9.31 20.97 9.52 21.29 9.85 21.61C10.18 21.92 10.67 22.25 11.32 22.59C11.97 22.93 12.86 23.32 14 23.77V24.74C14 25.38 13.99 26.15 13.96 27.05C13.93 27.95 13.87 28.9 13.77 29.9C13.67 30.89 13.53 31.89 13.34 32.87C13.15 33.86 12.89 34.74 12.55 35.52C12.22 36.3 11.81 36.94 11.31 37.43C10.81 37.92 10.21 38.17 9.51 38.17C8.81 38.17 8.27 37.88 7.82 37.31C7.37 36.74 7 36 6.7 35.09C6.4 34.19 6.18 33.17 6.03 32.06C5.88 30.94 5.77 29.84 5.7 28.75C5.63 27.66 5.59 26.63 5.59 25.67C5.59 24.71 5.59 23.95 5.59 23.38C5.59 22 5.69 20.58 5.89 19.12C6.09 17.66 6.4 16.24 6.82 14.87C7.24 13.49 7.78 12.2 8.43 10.98C9.08 9.76 9.85 8.7 10.73 7.79C11.62 6.88 12.62 6.16 13.76 5.62C14.89 5.09 16.16 4.82 17.55 4.82C19.41 4.82 20.95 5.03 22.18 5.46C23.41 5.89 24.39 6.44 25.12 7.1C25.85 7.76 26.36 8.5 26.66 9.31C26.96 10.12 27.11 10.91 27.11 11.69C27.11 12.47 26.95 13.26 26.65 14.02L26.6 14.01Z" fill="white"/>
<path d="M36.66 14.78C37.36 14.78 37.97 14.67 38.47 14.46C38.97 14.24 39.39 13.96 39.72 13.61C40.05 13.26 40.29 12.87 40.44 12.42C40.59 11.97 40.67 11.51 40.67 11.04C40.67 10.53 40.58 10.08 40.39 9.7C40.2 9.32 39.95 9.02 39.63 8.79C39.31 8.56 38.94 8.39 38.51 8.28C38.08 8.17 37.63 8.11 37.14 8.11C36.37 8.11 35.72 8.23 35.21 8.48C34.69 8.72 34.28 9.02 33.97 9.38C33.66 9.73 33.43 10.11 33.3 10.52C33.16 10.92 33.09 11.29 33.09 11.61C33.09 12.57 33.38 13.34 33.96 13.92C34.54 14.5 35.44 14.79 36.65 14.79L36.66 14.78Z" fill="white"/>
<path d="M88.36 28.05C87.67 28.98 86.99 29.81 86.31 30.55C86.02 30.86 85.71 31.17 85.39 31.46C85.07 31.75 84.74 32.02 84.42 32.25C84.1 32.48 83.78 32.67 83.46 32.81C83.14 32.95 82.84 33.03 82.55 33.03C82.16 33.03 81.91 32.85 81.8 32.5C81.68 32.14 81.62 31.65 81.62 31.02C81.62 30.28 81.73 29.37 81.96 28.29C82.19 27.21 82.39 26.25 82.57 25.41C82.75 24.57 82.9 23.74 83.04 22.94C83.18 22.14 83.25 21.41 83.25 20.75C83.25 20.32 83.21 19.98 83.14 19.73C83.06 19.48 82.96 19.28 82.82 19.14C82.68 19 82.52 18.91 82.34 18.87C82.16 18.83 81.97 18.81 81.76 18.81C81.61 18.81 81.45 18.81 81.29 18.82C81.13 18.82 80.97 18.83 80.82 18.83C80.64 18.83 80.46 18.82 80.29 18.8C80.12 18.78 79.95 18.73 79.78 18.66C79.61 18.59 79.48 18.48 79.36 18.33C79.25 18.18 79.13 18.02 79.02 17.86C78.9 17.7 78.75 17.56 78.57 17.43C78.39 17.3 78.14 17.24 77.82 17.24C76.86 17.24 75.92 17.44 75 17.85C74.08 18.26 73.2 18.8 72.37 19.49C71.54 20.18 70.77 20.98 70.07 21.9C69.37 22.82 68.71 23.91 68.1 25.18C67.49 26.44 67.04 27.62 66.75 28.71C66.48 29.72 66.35 30.71 66.33 31.67C66.12 31.85 65.91 32.02 65.68 32.21C65.33 32.51 64.95 32.79 64.54 33.06C64.13 33.33 63.69 33.55 63.22 33.72C62.74 33.89 62.22 33.98 61.64 33.98C61.38 33.98 61.07 33.93 60.72 33.83C60.37 33.73 60.03 33.62 59.72 33.51C59.4 33.39 59.13 33.28 58.89 33.18C58.65 33.08 58.53 33.03 58.52 33.03L58.62 32.61C58.74 32.44 58.99 32.12 59.36 31.66C59.72 31.19 60.15 30.64 60.64 30C61.13 29.36 61.68 28.61 62.3 27.75C62.92 26.89 63.47 26.11 63.98 25.42C64.48 24.74 64.93 24.11 65.31 23.55C65.7 22.99 65.97 22.56 66.14 22.25C66.72 22.1 67.13 21.93 67.38 21.76C67.63 21.58 67.77 21.44 67.79 21.33C67.87 20.99 67.91 20.59 67.91 20.11C67.91 19.52 67.8 19.05 67.59 18.71C67.38 18.37 67.03 18.19 66.55 18.19C66.51 18.19 66.45 18.2 66.38 18.22C66.31 18.24 66.19 18.27 66.02 18.29C65.85 18.32 65.6 18.34 65.27 18.36C64.94 18.38 64.5 18.39 63.95 18.39H63.32C63.09 18.39 62.84 18.39 62.57 18.37C62.21 18.36 61.86 18.27 61.53 18.11C61.19 17.95 60.86 17.77 60.54 17.57C60.22 17.37 59.89 17.19 59.56 17.03C59.23 16.87 58.9 16.79 58.57 16.79C58.13 16.79 57.65 16.86 57.13 17.01C56.61 17.16 56.12 17.43 55.64 17.84C55.22 18.2 54.84 18.69 54.49 19.31C54.44 19.08 54.36 18.87 54.25 18.7C54.04 18.36 53.69 18.18 53.21 18.18C53.17 18.18 53.11 18.19 53.04 18.21C52.97 18.23 52.85 18.26 52.68 18.28C52.51 18.31 52.26 18.33 51.93 18.35C51.6 18.37 51.16 18.38 50.61 18.38H49.98C49.75 18.38 49.5 18.38 49.23 18.36C48.87 18.35 48.52 18.26 48.19 18.1C47.85 17.94 47.52 17.76 47.2 17.56C46.88 17.36 46.55 17.18 46.22 17.02C45.89 16.86 45.56 16.78 45.23 16.78C44.79 16.78 44.31 16.85 43.79 17C43.27 17.15 42.78 17.42 42.3 17.83C41.82 18.24 41.39 18.81 41.01 19.56C40.62 20.3 40.33 21.28 40.12 22.48C40.09 22.65 40.07 22.81 40.06 22.97C40.05 23.13 40.04 23.28 40.04 23.41C40.04 23.74 40.08 24.01 40.17 24.21C40.26 24.41 40.42 24.51 40.64 24.51C40.87 24.51 41.14 24.36 41.43 24.06C41.72 23.76 42.08 23.28 42.51 22.64C42.7 22.34 42.88 22.12 43.04 21.95C43.2 21.79 43.38 21.67 43.58 21.59C43.78 21.51 44.03 21.46 44.32 21.45C44.61 21.44 44.97 21.43 45.42 21.43C45.6 21.43 45.76 21.45 45.92 21.49C46.07 21.53 46.22 21.59 46.36 21.67C46.51 21.75 46.67 21.83 46.85 21.93C47.03 22.03 47.24 22.13 47.49 22.24L42.44 29.22V29.12C41.98 29.49 41.46 29.94 40.87 30.47C40.28 30.99 39.67 31.5 39.05 31.99C38.43 32.48 37.82 32.9 37.21 33.24C36.6 33.59 36.05 33.76 35.55 33.76C35.12 33.76 34.84 33.58 34.7 33.21C34.56 32.84 34.49 32.35 34.49 31.73C34.49 31.11 34.59 30.39 34.79 29.62C34.99 28.84 35.15 28.06 35.28 27.28C35.41 26.49 35.65 25.55 36.01 24.43C36.37 23.32 36.63 22.4 36.82 21.7C37 20.99 37.16 20.36 37.3 19.81C37.44 19.26 37.51 18.83 37.51 18.52C37.51 18.16 37.41 17.88 37.2 17.66C37 17.45 36.61 17.34 36.04 17.34C35.73 17.34 35.38 17.38 34.99 17.45C34.6 17.53 34.23 17.65 33.87 17.81C33.51 17.97 33.19 18.18 32.9 18.43C32.59 18.71 32.4 19.02 32.33 19.37C32.21 19.87 31.88 20.94 31.36 22.59C30.8 24.61 30.42 25.92 30.23 26.51C30.12 26.81 29.86 28.15 29.46 30.55C29.27 31.71 29.17 32.72 29.17 33.59C29.17 34.21 29.24 34.78 29.37 35.3C29.5 35.82 29.72 36.26 30.02 36.61C30.32 36.97 30.72 37.25 31.21 37.45C31.7 37.65 32.3 37.75 33.02 37.75C33.82 37.75 34.67 37.6 35.56 37.32C36.45 37.03 37.32 36.67 38.18 36.23C38.57 36.03 38.95 35.82 39.32 35.6C39.37 35.68 39.42 35.76 39.48 35.83C39.68 36.07 39.93 36.26 40.23 36.4C40.53 36.54 40.89 36.61 41.31 36.61C41.7 36.61 42.15 36.53 42.68 36.37C43.29 36.67 43.85 36.93 44.36 37.13C44.87 37.33 45.32 37.49 45.7 37.62C46.09 37.75 46.4 37.83 46.63 37.89C46.87 37.94 47.01 37.97 47.06 37.97C47.74 37.97 48.46 37.89 49.22 37.73C49.98 37.57 50.74 37.35 51.47 37.08C52.11 36.84 52.72 36.56 53.32 36.26C53.41 36.32 53.49 36.38 53.59 36.42C53.89 36.56 54.25 36.63 54.67 36.63C55.06 36.63 55.51 36.55 56.04 36.39C56.65 36.69 57.21 36.95 57.72 37.15C58.23 37.35 58.68 37.51 59.06 37.64C59.45 37.77 59.76 37.85 59.99 37.91C60.23 37.96 60.37 37.99 60.42 37.99C61.1 37.99 61.82 37.91 62.58 37.75C63.34 37.59 64.1 37.37 64.83 37.1C65.57 36.82 66.28 36.51 66.95 36.14C67.18 36.02 67.38 35.89 67.59 35.76C67.71 35.92 67.83 36.1 67.97 36.25C68.45 36.76 69.01 37.15 69.63 37.42C70.26 37.69 70.9 37.83 71.56 37.83C72.19 37.83 72.81 37.73 73.44 37.52C74.06 37.32 74.67 37.05 75.24 36.73C75.82 36.41 76.35 36.05 76.84 35.66C77.33 35.26 77.74 34.87 78.07 34.49C78.51 35.6 79.04 36.44 79.65 37.02C80.26 37.6 81.02 37.89 81.94 37.89C82.7 37.89 83.46 37.7 84.22 37.33C84.98 36.95 85.69 36.49 86.35 35.95C87.01 35.41 87.61 34.83 88.14 34.23C88.67 33.63 89.09 33.11 89.41 32.66L88.42 28.11L88.36 28.05ZM54.81 30.48C54.63 30.52 54.46 30.59 54.29 30.68C53.97 30.85 53.65 31.07 53.33 31.34C53.01 31.61 52.67 31.89 52.32 32.19C51.97 32.49 51.59 32.77 51.18 33.04C50.77 33.31 50.33 33.53 49.86 33.7C49.38 33.87 48.86 33.96 48.28 33.96C48.02 33.96 47.71 33.91 47.36 33.81C47.01 33.71 46.67 33.6 46.36 33.49C46.04 33.37 45.77 33.26 45.53 33.16C45.3 33.06 45.17 33.01 45.16 33.01L45.26 32.59C45.38 32.42 45.63 32.1 45.99 31.64C46.36 31.17 46.78 30.62 47.27 29.98C47.76 29.34 48.31 28.59 48.93 27.73C49.54 26.86 50.1 26.09 50.61 25.4C51.11 24.72 51.56 24.09 51.94 23.53C52.33 22.97 52.6 22.54 52.77 22.23C53.07 22.15 53.32 22.07 53.53 21.98C53.5 22.14 53.46 22.29 53.43 22.46C53.4 22.63 53.38 22.79 53.37 22.95C53.36 23.11 53.35 23.26 53.35 23.39C53.35 23.72 53.39 23.99 53.48 24.19C53.57 24.39 53.73 24.49 53.95 24.49C54.18 24.49 54.45 24.34 54.74 24.04C55.03 23.74 55.39 23.26 55.82 22.62C56.01 22.32 56.19 22.1 56.35 21.93C56.51 21.77 56.69 21.65 56.89 21.57C57.09 21.49 57.34 21.44 57.62 21.43C57.91 21.42 58.28 21.41 58.72 21.41C58.9 21.41 59.06 21.43 59.22 21.47C59.37 21.51 59.52 21.57 59.66 21.65C59.8 21.73 59.97 21.81 60.15 21.91C60.33 22.01 60.54 22.11 60.79 22.22L54.83 30.46L54.81 30.48ZM76.79 27.92C76.74 28.36 76.61 28.92 76.43 29.59C76.24 30.26 76 30.9 75.69 31.53C75.39 32.15 75.03 32.69 74.61 33.13C74.19 33.57 73.73 33.8 73.22 33.8C72.9 33.8 72.64 33.72 72.43 33.55C72.22 33.39 72.06 33.17 71.93 32.91C71.81 32.65 71.72 32.35 71.67 32.01C71.62 31.68 71.6 31.33 71.6 30.97C71.6 30.37 71.68 29.73 71.84 29.04C72 28.36 72.27 27.56 72.66 26.66C73.05 25.76 73.44 25 73.84 24.38C74.24 23.76 74.68 23.22 75.15 22.74C75.63 22.26 76.13 21.88 76.67 21.6C77.21 21.32 77.76 21.18 78.33 21.18L76.79 27.91V27.92Z" fill="white"/>
<path d="M23.15 41.64C23.15 41.484 23.0547 41.406 22.864 41.406V41.172H24.866V41.406C24.8053 41.406 24.749 41.4277 24.697 41.471C24.6537 41.5057 24.632 41.562 24.632 41.64V47.542C24.632 47.62 24.6537 47.6807 24.697 47.724C24.749 47.7587 24.8053 47.776 24.866 47.776V48.01H22.864V47.776C23.0547 47.776 23.15 47.698 23.15 47.542V45.098H18.964V47.542C18.964 47.62 18.9857 47.6807 19.029 47.724C19.081 47.7587 19.1373 47.776 19.198 47.776V48.01H17.235V47.776C17.3997 47.776 17.482 47.698 17.482 47.542V41.64C17.482 41.484 17.3997 41.406 17.235 41.406V41.172H19.198V41.406C19.1373 41.406 19.081 41.4277 19.029 41.471C18.9857 41.5057 18.964 41.562 18.964 41.64V43.85H23.15V41.64ZM37.6191 42.576C37.6191 42.4807 37.5801 42.4113 37.5021 42.368C37.4328 42.316 37.3071 42.29 37.1251 42.29H32.9131V43.902H35.4611C35.6344 43.902 35.7688 43.8803 35.8641 43.837C35.9594 43.785 36.0071 43.6593 36.0071 43.46H36.2411V45.488H36.0071C36.0071 45.2887 35.9594 45.163 35.8641 45.111C35.7688 45.0503 35.6344 45.02 35.4611 45.02H32.9131V46.814H37.2551C37.3851 46.814 37.4891 46.7837 37.5671 46.723C37.6538 46.6623 37.6971 46.58 37.6971 46.476H37.9311V48.257H37.6971C37.6971 48.127 37.6538 48.0533 37.5671 48.036C37.4891 48.0187 37.3851 48.01 37.2551 48.01H31.1971V47.776C31.2578 47.776 31.3098 47.7587 31.3531 47.724C31.4051 47.6807 31.4311 47.62 31.4311 47.542V41.64C31.4311 41.562 31.4051 41.5057 31.3531 41.471C31.3098 41.4277 31.2578 41.406 31.1971 41.406V41.172H37.1251C37.3071 41.172 37.4328 41.146 37.5021 41.094C37.5801 41.0333 37.6191 40.9553 37.6191 40.86H37.8531V42.576H37.6191ZM47.8849 45.358L46.7929 42.94L45.5709 45.358H47.8849ZM42.9839 47.776C43.0966 47.7587 43.1833 47.7023 43.2439 47.607C43.3133 47.5117 43.3783 47.4033 43.4389 47.282L45.8439 42.225C45.9046 42.1123 45.9566 42.0083 45.9999 41.913C46.0519 41.8177 46.0779 41.7353 46.0779 41.666C46.0779 41.5793 46.0476 41.5187 45.9869 41.484C45.9263 41.4493 45.8613 41.4233 45.7919 41.406V41.172H47.9889V41.406C47.9283 41.4233 47.8676 41.4493 47.8069 41.484C47.7463 41.51 47.7159 41.5707 47.7159 41.666C47.7159 41.7353 47.7289 41.8047 47.7549 41.874C47.7896 41.9433 47.8373 42.0343 47.8979 42.147L50.6019 47.438C50.6453 47.5333 50.7016 47.6027 50.7709 47.646C50.8489 47.6893 50.9356 47.7327 51.0309 47.776V48.01H48.7429V47.776C48.7776 47.776 48.8209 47.763 48.8729 47.737C48.9249 47.711 48.9509 47.672 48.9509 47.62C48.9509 47.5333 48.9163 47.4207 48.8469 47.282L48.3529 46.32H45.1809L44.7129 47.243C44.6263 47.425 44.5829 47.555 44.5829 47.633C44.5829 47.7283 44.6653 47.776 44.8299 47.776V48.01H42.9839V47.776ZM63.7148 41.406C63.5414 41.406 63.4158 41.471 63.3378 41.601C63.2598 41.7223 63.2034 41.822 63.1688 41.9L60.8678 46.957C60.7898 47.1303 60.7248 47.269 60.6728 47.373C60.6208 47.477 60.5948 47.5507 60.5948 47.594C60.5948 47.6373 60.6034 47.672 60.6208 47.698C60.6468 47.724 60.6771 47.75 60.7118 47.776V48.01H58.7228V47.776C58.8008 47.7413 58.8398 47.6807 58.8398 47.594C58.8398 47.5507 58.8051 47.464 58.7358 47.334C58.6751 47.1953 58.5971 47.0263 58.5018 46.827L56.1618 41.744C56.1184 41.6487 56.0578 41.5793 55.9798 41.536C55.9018 41.4927 55.7891 41.4493 55.6418 41.406V41.172H57.9688V41.406C57.9081 41.406 57.8474 41.4233 57.7868 41.458C57.7348 41.484 57.7088 41.5403 57.7088 41.627C57.7088 41.7223 57.7434 41.8437 57.8128 41.991C57.8908 42.1383 57.9818 42.3203 58.0858 42.537L59.7498 46.112L61.3748 42.589C61.4788 42.3637 61.5741 42.1643 61.6608 41.991C61.7561 41.809 61.8038 41.6833 61.8038 41.614C61.8038 41.4753 61.6824 41.406 61.4398 41.406V41.172H63.7148V41.406ZM75.5146 42.576C75.5146 42.4807 75.4756 42.4113 75.3976 42.368C75.3283 42.316 75.2026 42.29 75.0206 42.29H70.8086V43.902H73.3566C73.5299 43.902 73.6643 43.8803 73.7596 43.837C73.8549 43.785 73.9026 43.6593 73.9026 43.46H74.1366V45.488H73.9026C73.9026 45.2887 73.8549 45.163 73.7596 45.111C73.6643 45.0503 73.5299 45.02 73.3566 45.02H70.8086V46.814H75.1506C75.2806 46.814 75.3846 46.7837 75.4626 46.723C75.5493 46.6623 75.5926 46.58 75.5926 46.476H75.8266V48.257H75.5926C75.5926 48.127 75.5493 48.0533 75.4626 48.036C75.3846 48.0187 75.2806 48.01 75.1506 48.01H69.0926V47.776C69.1533 47.776 69.2053 47.7587 69.2486 47.724C69.3006 47.6807 69.3266 47.62 69.3266 47.542V41.64C69.3266 41.562 69.3006 41.5057 69.2486 41.471C69.2053 41.4277 69.1533 41.406 69.0926 41.406V41.172H75.0206C75.2026 41.172 75.3283 41.146 75.3976 41.094C75.4756 41.0333 75.5146 40.9553 75.5146 40.86H75.7486V42.576H75.5146ZM81.7894 47.776C81.9541 47.776 82.0364 47.698 82.0364 47.542V41.64C82.0364 41.484 81.9541 41.406 81.7894 41.406V41.172H84.0124V41.406C83.9431 41.406 83.9084 41.4493 83.9084 41.536C83.9084 41.6053 83.9951 41.7267 84.1684 41.9L87.8994 45.774V41.64C87.8994 41.484 87.7868 41.406 87.5614 41.406V41.172H89.5244V41.406C89.3598 41.406 89.2774 41.484 89.2774 41.64V47.542C89.2774 47.698 89.3598 47.776 89.5244 47.776V48.01H87.4184V47.776C87.5311 47.776 87.5874 47.737 87.5874 47.659C87.5874 47.5983 87.5181 47.4987 87.3794 47.36L83.4144 43.226V47.542C83.4144 47.698 83.5141 47.776 83.7134 47.776V48.01H81.7894V47.776Z" fill="white"/>
</svg>
