<svg width="91" height="52" viewBox="0 0 91 52" fill="none" xmlns="http://www.w3.org/2000/svg">
<path d="M32.03 12.2C32.03 10.76 31.74 9.36 31.14 8.01C30.55 6.66 29.67 5.47 28.51 4.43C27.35 3.39 25.88 2.56 24.13 1.93C22.37 1.3 20.33 0.99 18 0.99C16.23 0.99 14.56 1.28 12.99 1.85C11.42 2.42 9.97 3.23 8.64 4.28C7.31 5.33 6.11 6.58 5.04 8.04C3.98 9.5 3.07 11.12 2.32 12.89C1.57 14.66 1 16.56 0.6 18.58C0.2 20.61 0 22.71 0 24.89C0 26.16 0.07 27.51 0.2 28.94C0.33 30.37 0.54 31.8 0.83 33.21C1.12 34.62 1.5 35.98 1.96 37.27C2.42 38.56 2.99 39.71 3.66 40.7C4.33 41.69 5.11 42.48 6 43.07C6.89 43.66 7.9 43.95 9.03 43.95C10.1 43.95 11.08 43.75 11.98 43.36C12.88 42.97 13.69 42.44 14.42 41.77C15.15 41.1 15.78 40.33 16.33 39.44C16.88 38.55 17.34 37.61 17.72 36.62C18.1 35.63 18.39 34.62 18.59 33.58C18.79 32.54 18.91 31.54 18.93 30.57C18.93 30.49 18.93 30.34 18.93 30.11C18.93 29.89 18.94 29.63 18.95 29.33C18.95 29.03 18.97 28.71 18.98 28.35C18.99 27.99 19.01 27.63 19.02 27.27C19.05 26.43 19.08 25.5 19.12 24.49C21.3 24.16 23.2 23.59 24.81 22.77C26.43 21.96 27.77 20.99 28.83 19.87C29.89 18.75 30.69 17.53 31.21 16.21C31.74 14.88 32 13.55 32 12.19L32.03 12.2ZM26.6 15C26.29 15.75 25.82 16.45 25.18 17.08C24.54 17.71 23.73 18.25 22.76 18.71C21.78 19.17 20.62 19.51 19.27 19.72L19.46 18.07L20.72 12.69C20.72 12.63 20.72 12.59 20.73 12.55C20.73 12.51 20.74 12.45 20.74 12.35C20.74 12 20.67 11.72 20.52 11.5C20.38 11.28 20.2 11.1 19.98 10.97C19.77 10.84 19.53 10.75 19.27 10.7C19.01 10.65 18.75 10.63 18.51 10.63C17.69 10.63 17 10.84 16.44 11.25C15.88 11.66 15.43 12.18 15.09 12.81C14.74 13.44 14.48 14.13 14.3 14.88C14.12 15.63 13.99 16.35 13.91 17.04C13.83 17.73 13.79 18.34 13.79 18.88C13.79 19.42 13.78 19.78 13.78 19.96C13.53 19.9 13.26 19.82 12.96 19.7C12.7 19.6 12.39 19.47 12.02 19.3C11.65 19.13 11.24 18.92 10.79 18.67C10.61 18.57 10.46 18.49 10.35 18.43C10.23 18.37 10.11 18.34 9.97 18.34C9.76 18.34 9.6 18.4 9.49 18.52C9.37 18.64 9.28 18.8 9.22 18.99C9.16 19.18 9.12 19.4 9.11 19.65C9.1 19.9 9.09 20.15 9.09 20.4C9.09 20.86 9.13 21.26 9.22 21.61C9.31 21.96 9.52 22.28 9.85 22.6C10.18 22.91 10.67 23.24 11.32 23.58C11.97 23.92 12.86 24.31 14 24.76V25.73C14 26.37 13.99 27.14 13.96 28.04C13.93 28.94 13.87 29.89 13.77 30.89C13.67 31.88 13.53 32.88 13.34 33.86C13.15 34.85 12.89 35.73 12.55 36.51C12.22 37.29 11.81 37.93 11.31 38.42C10.81 38.91 10.21 39.16 9.51 39.16C8.81 39.16 8.27 38.87 7.82 38.3C7.37 37.73 7 36.99 6.7 36.08C6.4 35.18 6.18 34.16 6.03 33.05C5.88 31.93 5.77 30.83 5.7 29.74C5.63 28.65 5.59 27.62 5.59 26.66C5.59 25.7 5.59 24.94 5.59 24.37C5.59 22.99 5.69 21.57 5.89 20.11C6.09 18.65 6.4 17.23 6.82 15.86C7.24 14.48 7.78 13.19 8.43 11.97C9.08 10.75 9.85 9.69 10.73 8.78C11.62 7.87 12.62 7.15 13.76 6.61C14.89 6.08 16.16 5.81 17.55 5.81C19.41 5.81 20.95 6.02 22.18 6.45C23.41 6.88 24.39 7.43 25.12 8.09C25.85 8.75 26.36 9.49 26.66 10.3C26.96 11.11 27.11 11.9 27.11 12.68C27.11 13.46 26.95 14.25 26.65 15.01L26.6 15Z" fill="#DB0315"/>
<path d="M36.66 15.77C37.36 15.77 37.97 15.66 38.47 15.45C38.97 15.23 39.39 14.95 39.72 14.6C40.05 14.25 40.29 13.86 40.44 13.41C40.59 12.96 40.67 12.5 40.67 12.03C40.67 11.52 40.58 11.07 40.39 10.69C40.2 10.31 39.95 10.01 39.63 9.78C39.31 9.55 38.94 9.38 38.51 9.27C38.08 9.16 37.63 9.1 37.14 9.1C36.37 9.1 35.72 9.22 35.21 9.47C34.69 9.71 34.28 10.01 33.97 10.37C33.66 10.72 33.43 11.1 33.3 11.51C33.16 11.91 33.09 12.28 33.09 12.6C33.09 13.56 33.38 14.33 33.96 14.91C34.54 15.49 35.44 15.78 36.65 15.78L36.66 15.77Z" fill="#DB0315"/>
<path d="M88.36 29.04C87.67 29.97 86.99 30.8 86.31 31.54C86.02 31.85 85.71 32.16 85.39 32.45C85.07 32.74 84.74 33.01 84.42 33.24C84.1 33.47 83.78 33.66 83.46 33.8C83.14 33.94 82.84 34.02 82.55 34.02C82.16 34.02 81.91 33.84 81.8 33.49C81.68 33.13 81.62 32.64 81.62 32.01C81.62 31.27 81.73 30.36 81.96 29.28C82.19 28.2 82.39 27.24 82.57 26.4C82.75 25.56 82.9 24.73 83.04 23.93C83.18 23.13 83.25 22.4 83.25 21.74C83.25 21.31 83.21 20.97 83.14 20.72C83.06 20.47 82.96 20.27 82.82 20.13C82.68 19.99 82.52 19.9 82.34 19.86C82.16 19.82 81.97 19.8 81.76 19.8C81.61 19.8 81.45 19.8 81.29 19.81C81.13 19.81 80.97 19.82 80.82 19.82C80.64 19.82 80.46 19.81 80.29 19.79C80.12 19.77 79.95 19.72 79.78 19.65C79.61 19.58 79.48 19.47 79.36 19.32C79.25 19.17 79.13 19.01 79.02 18.85C78.9 18.69 78.75 18.55 78.57 18.42C78.39 18.29 78.14 18.23 77.82 18.23C76.86 18.23 75.92 18.43 75 18.84C74.08 19.25 73.2 19.79 72.37 20.48C71.54 21.17 70.77 21.97 70.07 22.89C69.37 23.81 68.71 24.9 68.1 26.17C67.49 27.43 67.04 28.61 66.75 29.7C66.48 30.71 66.35 31.7 66.33 32.66C66.12 32.84 65.91 33.01 65.68 33.2C65.33 33.5 64.95 33.78 64.54 34.05C64.13 34.32 63.69 34.54 63.22 34.71C62.74 34.88 62.22 34.97 61.64 34.97C61.38 34.97 61.07 34.92 60.72 34.82C60.37 34.72 60.03 34.61 59.72 34.5C59.4 34.38 59.13 34.27 58.89 34.17C58.65 34.07 58.53 34.02 58.52 34.02L58.62 33.6C58.74 33.43 58.99 33.11 59.36 32.65C59.72 32.18 60.15 31.63 60.64 30.99C61.13 30.35 61.68 29.6 62.3 28.74C62.92 27.88 63.47 27.1 63.98 26.41C64.48 25.73 64.93 25.1 65.31 24.54C65.7 23.98 65.97 23.55 66.14 23.24C66.72 23.09 67.13 22.92 67.38 22.75C67.63 22.57 67.77 22.43 67.79 22.32C67.87 21.98 67.91 21.58 67.91 21.1C67.91 20.51 67.8 20.04 67.59 19.7C67.38 19.36 67.03 19.18 66.55 19.18C66.51 19.18 66.45 19.19 66.38 19.21C66.31 19.23 66.19 19.26 66.02 19.28C65.85 19.31 65.6 19.33 65.27 19.35C64.94 19.37 64.5 19.38 63.95 19.38H63.32C63.09 19.38 62.84 19.38 62.57 19.36C62.21 19.35 61.86 19.26 61.53 19.1C61.19 18.94 60.86 18.76 60.54 18.56C60.22 18.36 59.89 18.18 59.56 18.02C59.23 17.86 58.9 17.78 58.57 17.78C58.13 17.78 57.65 17.85 57.13 18C56.61 18.15 56.12 18.42 55.64 18.83C55.22 19.19 54.84 19.68 54.49 20.3C54.44 20.07 54.36 19.86 54.25 19.69C54.04 19.35 53.69 19.17 53.21 19.17C53.17 19.17 53.11 19.18 53.04 19.2C52.97 19.22 52.85 19.25 52.68 19.27C52.51 19.3 52.26 19.32 51.93 19.34C51.6 19.36 51.16 19.37 50.61 19.37H49.98C49.75 19.37 49.5 19.37 49.23 19.35C48.87 19.34 48.52 19.25 48.19 19.09C47.85 18.93 47.52 18.75 47.2 18.55C46.88 18.35 46.55 18.17 46.22 18.01C45.89 17.85 45.56 17.77 45.23 17.77C44.79 17.77 44.31 17.84 43.79 17.99C43.27 18.14 42.78 18.41 42.3 18.82C41.82 19.23 41.39 19.8 41.01 20.55C40.62 21.29 40.33 22.27 40.12 23.47C40.09 23.64 40.07 23.8 40.06 23.96C40.05 24.12 40.04 24.27 40.04 24.4C40.04 24.73 40.08 25 40.17 25.2C40.26 25.4 40.42 25.5 40.64 25.5C40.87 25.5 41.14 25.35 41.43 25.05C41.72 24.75 42.08 24.27 42.51 23.63C42.7 23.33 42.88 23.11 43.04 22.94C43.2 22.78 43.38 22.66 43.58 22.58C43.78 22.5 44.03 22.45 44.32 22.44C44.61 22.43 44.97 22.42 45.42 22.42C45.6 22.42 45.76 22.44 45.92 22.48C46.07 22.52 46.22 22.58 46.36 22.66C46.51 22.74 46.67 22.82 46.85 22.92C47.03 23.02 47.24 23.12 47.49 23.23L42.44 30.21V30.11C41.98 30.48 41.46 30.93 40.87 31.46C40.28 31.98 39.67 32.49 39.05 32.98C38.43 33.47 37.82 33.89 37.21 34.23C36.6 34.58 36.05 34.75 35.55 34.75C35.12 34.75 34.84 34.57 34.7 34.2C34.56 33.83 34.49 33.34 34.49 32.72C34.49 32.1 34.59 31.38 34.79 30.61C34.99 29.83 35.15 29.05 35.28 28.27C35.41 27.48 35.65 26.54 36.01 25.42C36.37 24.31 36.63 23.39 36.82 22.69C37 21.98 37.16 21.35 37.3 20.8C37.44 20.25 37.51 19.82 37.51 19.51C37.51 19.15 37.41 18.87 37.2 18.65C37 18.44 36.61 18.33 36.04 18.33C35.73 18.33 35.38 18.37 34.99 18.44C34.6 18.52 34.23 18.64 33.87 18.8C33.51 18.96 33.19 19.17 32.9 19.42C32.59 19.7 32.4 20.01 32.33 20.36C32.21 20.86 31.88 21.93 31.36 23.58C30.8 25.6 30.42 26.91 30.23 27.5C30.12 27.8 29.86 29.14 29.46 31.54C29.27 32.7 29.17 33.71 29.17 34.58C29.17 35.2 29.24 35.77 29.37 36.29C29.5 36.81 29.72 37.25 30.02 37.6C30.32 37.96 30.72 38.24 31.21 38.44C31.7 38.64 32.3 38.74 33.02 38.74C33.82 38.74 34.67 38.59 35.56 38.31C36.45 38.02 37.32 37.66 38.18 37.22C38.57 37.02 38.95 36.81 39.32 36.59C39.37 36.67 39.42 36.75 39.48 36.82C39.68 37.06 39.93 37.25 40.23 37.39C40.53 37.53 40.89 37.6 41.31 37.6C41.7 37.6 42.15 37.52 42.68 37.36C43.29 37.66 43.85 37.92 44.36 38.12C44.87 38.32 45.32 38.48 45.7 38.61C46.09 38.74 46.4 38.82 46.63 38.88C46.87 38.93 47.01 38.96 47.06 38.96C47.74 38.96 48.46 38.88 49.22 38.72C49.98 38.56 50.74 38.34 51.47 38.07C52.11 37.83 52.72 37.55 53.32 37.25C53.41 37.31 53.49 37.37 53.59 37.41C53.89 37.55 54.25 37.62 54.67 37.62C55.06 37.62 55.51 37.54 56.04 37.38C56.65 37.68 57.21 37.94 57.72 38.14C58.23 38.34 58.68 38.5 59.06 38.63C59.45 38.76 59.76 38.84 59.99 38.9C60.23 38.95 60.37 38.98 60.42 38.98C61.1 38.98 61.82 38.9 62.58 38.74C63.34 38.58 64.1 38.36 64.83 38.09C65.57 37.81 66.28 37.5 66.95 37.13C67.18 37.01 67.38 36.88 67.59 36.75C67.71 36.91 67.83 37.09 67.97 37.24C68.45 37.75 69.01 38.14 69.63 38.41C70.26 38.68 70.9 38.82 71.56 38.82C72.19 38.82 72.81 38.72 73.44 38.51C74.06 38.31 74.67 38.04 75.24 37.72C75.82 37.4 76.35 37.04 76.84 36.65C77.33 36.25 77.74 35.86 78.07 35.48C78.51 36.59 79.04 37.43 79.65 38.01C80.26 38.59 81.02 38.88 81.94 38.88C82.7 38.88 83.46 38.69 84.22 38.32C84.98 37.94 85.69 37.48 86.35 36.94C87.01 36.4 87.61 35.82 88.14 35.22C88.67 34.62 89.09 34.1 89.41 33.65L88.42 29.1L88.36 29.04ZM54.81 31.47C54.63 31.51 54.46 31.58 54.29 31.67C53.97 31.84 53.65 32.06 53.33 32.33C53.01 32.6 52.67 32.88 52.32 33.18C51.97 33.48 51.59 33.76 51.18 34.03C50.77 34.3 50.33 34.52 49.86 34.69C49.38 34.86 48.86 34.95 48.28 34.95C48.02 34.95 47.71 34.9 47.36 34.8C47.01 34.7 46.67 34.59 46.36 34.48C46.04 34.36 45.77 34.25 45.53 34.15C45.3 34.05 45.17 34 45.16 34L45.26 33.58C45.38 33.41 45.63 33.09 45.99 32.63C46.36 32.16 46.78 31.61 47.27 30.97C47.76 30.33 48.31 29.58 48.93 28.72C49.54 27.85 50.1 27.08 50.61 26.39C51.11 25.71 51.56 25.08 51.94 24.52C52.33 23.96 52.6 23.53 52.77 23.22C53.07 23.14 53.32 23.06 53.53 22.97C53.5 23.13 53.46 23.28 53.43 23.45C53.4 23.62 53.38 23.78 53.37 23.94C53.36 24.1 53.35 24.25 53.35 24.38C53.35 24.71 53.39 24.98 53.48 25.18C53.57 25.38 53.73 25.48 53.95 25.48C54.18 25.48 54.45 25.33 54.74 25.03C55.03 24.73 55.39 24.25 55.82 23.61C56.01 23.31 56.19 23.09 56.35 22.92C56.51 22.76 56.69 22.64 56.89 22.56C57.09 22.48 57.34 22.43 57.62 22.42C57.91 22.41 58.28 22.4 58.72 22.4C58.9 22.4 59.06 22.42 59.22 22.46C59.37 22.5 59.52 22.56 59.66 22.64C59.8 22.72 59.97 22.8 60.15 22.9C60.33 23 60.54 23.1 60.79 23.21L54.83 31.45L54.81 31.47ZM76.79 28.91C76.74 29.35 76.61 29.91 76.43 30.58C76.24 31.25 76 31.89 75.69 32.52C75.39 33.14 75.03 33.68 74.61 34.12C74.19 34.56 73.73 34.79 73.22 34.79C72.9 34.79 72.64 34.71 72.43 34.54C72.22 34.38 72.06 34.16 71.93 33.9C71.81 33.64 71.72 33.34 71.67 33C71.62 32.67 71.6 32.32 71.6 31.96C71.6 31.36 71.68 30.72 71.84 30.03C72 29.35 72.27 28.55 72.66 27.65C73.05 26.75 73.44 25.99 73.84 25.37C74.24 24.75 74.68 24.21 75.15 23.73C75.63 23.25 76.13 22.87 76.67 22.59C77.21 22.31 77.76 22.17 78.33 22.17L76.79 28.9V28.91Z" fill="#DB0315"/>
<path d="M23.15 42.63C23.15 42.474 23.0547 42.396 22.864 42.396V42.162H24.866V42.396C24.8053 42.396 24.749 42.4177 24.697 42.461C24.6537 42.4957 24.632 42.552 24.632 42.63V48.532C24.632 48.61 24.6537 48.6707 24.697 48.714C24.749 48.7487 24.8053 48.766 24.866 48.766V49H22.864V48.766C23.0547 48.766 23.15 48.688 23.15 48.532V46.088H18.964V48.532C18.964 48.61 18.9857 48.6707 19.029 48.714C19.081 48.7487 19.1373 48.766 19.198 48.766V49H17.235V48.766C17.3997 48.766 17.482 48.688 17.482 48.532V42.63C17.482 42.474 17.3997 42.396 17.235 42.396V42.162H19.198V42.396C19.1373 42.396 19.081 42.4177 19.029 42.461C18.9857 42.4957 18.964 42.552 18.964 42.63V44.84H23.15V42.63ZM37.6191 43.566C37.6191 43.4707 37.5801 43.4013 37.5021 43.358C37.4328 43.306 37.3071 43.28 37.1251 43.28H32.9131V44.892H35.4611C35.6344 44.892 35.7688 44.8703 35.8641 44.827C35.9594 44.775 36.0071 44.6493 36.0071 44.45H36.2411V46.478H36.0071C36.0071 46.2787 35.9594 46.153 35.8641 46.101C35.7688 46.0403 35.6344 46.01 35.4611 46.01H32.9131V47.804H37.2551C37.3851 47.804 37.4891 47.7737 37.5671 47.713C37.6538 47.6523 37.6971 47.57 37.6971 47.466H37.9311V49.247H37.6971C37.6971 49.117 37.6538 49.0433 37.5671 49.026C37.4891 49.0087 37.3851 49 37.2551 49H31.1971V48.766C31.2578 48.766 31.3098 48.7487 31.3531 48.714C31.4051 48.6707 31.4311 48.61 31.4311 48.532V42.63C31.4311 42.552 31.4051 42.4957 31.3531 42.461C31.3098 42.4177 31.2578 42.396 31.1971 42.396V42.162H37.1251C37.3071 42.162 37.4328 42.136 37.5021 42.084C37.5801 42.0233 37.6191 41.9453 37.6191 41.85H37.8531V43.566H37.6191ZM47.8849 46.348L46.7929 43.93L45.5709 46.348H47.8849ZM42.9839 48.766C43.0966 48.7487 43.1833 48.6923 43.2439 48.597C43.3133 48.5017 43.3783 48.3933 43.4389 48.272L45.8439 43.215C45.9046 43.1023 45.9566 42.9983 45.9999 42.903C46.0519 42.8077 46.0779 42.7253 46.0779 42.656C46.0779 42.5693 46.0476 42.5087 45.9869 42.474C45.9263 42.4393 45.8613 42.4133 45.7919 42.396V42.162H47.9889V42.396C47.9283 42.4133 47.8676 42.4393 47.8069 42.474C47.7463 42.5 47.7159 42.5607 47.7159 42.656C47.7159 42.7253 47.7289 42.7947 47.7549 42.864C47.7896 42.9333 47.8373 43.0243 47.8979 43.137L50.6019 48.428C50.6453 48.5233 50.7016 48.5927 50.7709 48.636C50.8489 48.6793 50.9356 48.7227 51.0309 48.766V49H48.7429V48.766C48.7776 48.766 48.8209 48.753 48.8729 48.727C48.9249 48.701 48.9509 48.662 48.9509 48.61C48.9509 48.5233 48.9163 48.4107 48.8469 48.272L48.3529 47.31H45.1809L44.7129 48.233C44.6263 48.415 44.5829 48.545 44.5829 48.623C44.5829 48.7183 44.6653 48.766 44.8299 48.766V49H42.9839V48.766ZM63.7148 42.396C63.5414 42.396 63.4158 42.461 63.3378 42.591C63.2598 42.7123 63.2034 42.812 63.1688 42.89L60.8678 47.947C60.7898 48.1203 60.7248 48.259 60.6728 48.363C60.6208 48.467 60.5948 48.5407 60.5948 48.584C60.5948 48.6273 60.6034 48.662 60.6208 48.688C60.6468 48.714 60.6771 48.74 60.7118 48.766V49H58.7228V48.766C58.8008 48.7313 58.8398 48.6707 58.8398 48.584C58.8398 48.5407 58.8051 48.454 58.7358 48.324C58.6751 48.1853 58.5971 48.0163 58.5018 47.817L56.1618 42.734C56.1184 42.6387 56.0578 42.5693 55.9798 42.526C55.9018 42.4827 55.7891 42.4393 55.6418 42.396V42.162H57.9688V42.396C57.9081 42.396 57.8474 42.4133 57.7868 42.448C57.7348 42.474 57.7088 42.5303 57.7088 42.617C57.7088 42.7123 57.7434 42.8337 57.8128 42.981C57.8908 43.1283 57.9818 43.3103 58.0858 43.527L59.7498 47.102L61.3748 43.579C61.4788 43.3537 61.5741 43.1543 61.6608 42.981C61.7561 42.799 61.8038 42.6733 61.8038 42.604C61.8038 42.4653 61.6824 42.396 61.4398 42.396V42.162H63.7148V42.396ZM75.5146 43.566C75.5146 43.4707 75.4756 43.4013 75.3976 43.358C75.3283 43.306 75.2026 43.28 75.0206 43.28H70.8086V44.892H73.3566C73.5299 44.892 73.6643 44.8703 73.7596 44.827C73.8549 44.775 73.9026 44.6493 73.9026 44.45H74.1366V46.478H73.9026C73.9026 46.2787 73.8549 46.153 73.7596 46.101C73.6643 46.0403 73.5299 46.01 73.3566 46.01H70.8086V47.804H75.1506C75.2806 47.804 75.3846 47.7737 75.4626 47.713C75.5493 47.6523 75.5926 47.57 75.5926 47.466H75.8266V49.247H75.5926C75.5926 49.117 75.5493 49.0433 75.4626 49.026C75.3846 49.0087 75.2806 49 75.1506 49H69.0926V48.766C69.1533 48.766 69.2053 48.7487 69.2486 48.714C69.3006 48.6707 69.3266 48.61 69.3266 48.532V42.63C69.3266 42.552 69.3006 42.4957 69.2486 42.461C69.2053 42.4177 69.1533 42.396 69.0926 42.396V42.162H75.0206C75.2026 42.162 75.3283 42.136 75.3976 42.084C75.4756 42.0233 75.5146 41.9453 75.5146 41.85H75.7486V43.566H75.5146ZM81.7894 48.766C81.9541 48.766 82.0364 48.688 82.0364 48.532V42.63C82.0364 42.474 81.9541 42.396 81.7894 42.396V42.162H84.0124V42.396C83.9431 42.396 83.9084 42.4393 83.9084 42.526C83.9084 42.5953 83.9951 42.7167 84.1684 42.89L87.8994 46.764V42.63C87.8994 42.474 87.7868 42.396 87.5614 42.396V42.162H89.5244V42.396C89.3598 42.396 89.2774 42.474 89.2774 42.63V48.532C89.2774 48.688 89.3598 48.766 89.5244 48.766V49H87.4184V48.766C87.5311 48.766 87.5874 48.727 87.5874 48.649C87.5874 48.5883 87.5181 48.4887 87.3794 48.35L83.4144 44.216V48.532C83.4144 48.688 83.5141 48.766 83.7134 48.766V49H81.7894V48.766Z" fill="#29C358"/>
</svg>
